<?xml version="1.0" encoding="UTF-8" standalone="no"?>
<!DOCTYPE svg PUBLIC "-//W3C//DTD SVG 1.1//EN" "http://www.w3.org/Graphics/SVG/1.1/DTD/svg11.dtd">
<svg width="100%" height="100%" viewBox="0 0 182 124" version="1.1" xmlns="http://www.w3.org/2000/svg" xmlns:xlink="http://www.w3.org/1999/xlink" xml:space="preserve" xmlns:serif="http://www.serif.com/" style="fill-rule:evenodd;clip-rule:evenodd;stroke-linecap:round;stroke-linejoin:round;stroke-miterlimit:1.5;">
<rect id="logo-reef-chinuch-restaurant" serif:id="logo-reef-chinuch-restaurant" x="0" y="0" width="181.176" height="123.416" style="fill:none;"/>
<path d="M43.377,106.603c0,0 -8.791,-7.706 -2.447,-13.967c5.818,-5.741 16.626,-5.477 18.054,-5.351c1.428,0.126 22.9,-0.005 37.697,6.87c14.797,6.875 15.568,6.903 15.568,6.903c0,0 -0.534,-7.571 6.034,-9.128c6.568,-1.556 17.284,1.288 23.612,-3.936c6.328,-5.224 9.782,-12.607 4.208,-23.826c-5.574,-11.218 -23.68,-15.58 -24.952,-15.944c-1.271,-0.364 -5.279,-16.241 -19.718,-20.978c-14.44,-4.737 -27.44,3.553 -29.479,4.119c-2.039,0.566 -19.744,-8.315 -35.494,-1.387c-15.751,6.927 -15.524,24.824 -4.052,33.688c11.472,8.864 12.295,7.428 13.54,8.444c1.245,1.016 -6.559,0.208 -7.697,2.318c-0.462,0.857 2.065,0.868 4.101,1.951c2.973,1.583 2.286,6.469 -0.471,9.126c-7.336,7.07 -13.745,11.128 1.496,21.098Z" style="fill:#120000;stroke:#120000;stroke-width:5.5px;"/>
<path d="M154.607,101.377l1.705,-33.538c0,0 -5.147,-1.608 -5.172,-8.844c-0.025,-7.237 -0.172,-13.998 0.896,-20.044c1.069,-6.045 0.967,-3.333 0.967,-3.333c0,0 0.751,2.017 0.72,4.801c-0.031,2.784 -0.339,14.366 0.308,14.955c0.648,0.589 1.134,-19.266 2.097,-20.183c0.964,-0.917 0.341,17.66 1.217,19.642c0.875,1.981 1.199,-17.978 2.169,-19.162c0.97,-1.185 1.454,16.837 1.862,19.067c0.409,2.229 1.491,-19.015 1.791,-19.307c0.301,-0.292 1.746,14.474 1.413,20.285c-0.334,5.81 0.656,9.238 -4.633,12.17c-1.092,0.605 0.3,33.515 0.34,33.57c0.041,0.055 -5.68,-0.079 -5.68,-0.079Z" style="fill:#e89028;"/>
<text x="50.809px" y="72.379px" style="font-family:'Avenir-Book', 'Avenir';font-size:12px;fill:#f2f2f2;">Reef Chinuch</text><path d="M133.354,101.72l5.878,-0.096l0.669,-35.433c0,0 7.93,-2.081 9.258,-11.925c1.328,-9.844 -4.287,-20.767 -9.772,-21.457c-5.42,-0.681 -10.373,10.212 -10.74,14.919c-1.223,15.688 7.001,18.391 7.001,18.391c0.936,11.74 -0.357,23.646 -2.294,35.601Z" style="fill:#e89028;"/>
</svg>